<svg width="100" height="100" xmlns="http://www.w3.org/2000/svg" preserveAspectRatio="xMidYMid meet">
 <metadata>Created by potrace 1.10, written by Peter Selinger 2001-2011</metadata>

 <g>
  <title>background</title>
  <rect fill="none" id="canvas_background" height="102" width="102" y="-1" x="-1"/>
 </g>
 <g>
  <title>Layer 1</title>
  <path id="svg_6" d="m10.77505,33.17581l-0.94519,60.20793l56.14366,-1.51229l-5.48204,-6.80529l-0.75614,-8.50662l-2.83554,-3.96975l-14.7448,-6.23818l-4.34783,-3.78072l-4.15879,-9.82987l-7.75047,-5.67108l-9.64083,-7.3724l-4.15879,-6.23818" stroke-width="0" stroke="#000" fill="#00b933"/>
  <path id="svg_7" d="m89.9811,14.27221l-58.79018,-1.41777l-2.07939,1.70132l-0.94518,3.40265l0.56711,9.07372l1.32325,1.51229l3.96975,2.26843l5.48204,2.45747c0.00001,0.09452 3.96976,3.49717 3.78073,3.49717c-0.18904,0 3.02457,4.91493 3.02457,4.82041c0.00001,0.09452 3.59169,6.52175 3.59168,6.42722c0.00001,0.09452 2.26844,2.93006 2.26843,2.83554c0.00001,0.09452 6.04916,1.0397 6.04915,0.94518c0.00001,0.09452 6.04916,-0.28355 6.04915,-0.37807c0.00001,0.09452 5.29302,0.66163 5.29301,0.56711c0.00001,0.09452 2.83555,2.17392 2.64651,2.17392c-0.18904,0 2.6465,8.69565 2.64649,8.60113c0.00001,0.09453 2.07941,6.33271 2.07939,6.23818c0.00001,0.09453 3.59169,2.74103 3.59168,2.6465c0.00001,0.09453 4.72591,1.98489 4.7259,1.89036c0.00001,0.09453 4.72591,-0.09451 4.7259,-0.18904c0.00001,0.09453 0.75616,-25.8034 0.00001,-59.07372z" stroke-width="0" stroke="#000" fill="#00b933"/>
  <g id="svg_1" fill="#000000" transform="translate(0.000000,100.000000) scale(0.100000,-0.100000)">
   <path stroke-width="0" id="svg_2" d="m50,765c0,-103 4,-165 10,-165c6,0 10,58 10,155l0,155l135,0c83,0 135,4 135,10c0,6 -55,10 -145,10l-145,0l0,-165z"/>
   <path stroke-width="0" id="svg_3" d="m280,861c-14,-27 -13,-124 3,-144c6,-9 35,-26 62,-37c66,-28 80,-42 116,-117c38,-79 68,-98 145,-88c90,11 108,-5 133,-111c18,-73 68,-114 142,-114l29,0l0,308l0,309l-187,6c-104,4 -243,7 -310,7c-111,0 -123,-2 -133,-19zm413,-8l197,-6l0,-289c0,-286 0,-288 -21,-288c-36,0 -87,30 -97,58c-6,15 -18,52 -26,83c-9,31 -23,63 -32,70c-11,9 -44,14 -88,15c-39,1 -79,2 -88,2c-19,2 -68,72 -68,97c0,24 -72,89 -115,104c-22,7 -46,18 -52,23c-13,11 -18,94 -7,122c7,19 76,20 397,9z"/>
   <path stroke-width="0" id="svg_4" d="m97,589c-4,-67 -7,-214 -7,-327l0,-205l188,6c103,4 233,7 290,7c115,0 127,10 72,57c-25,20 -30,32 -30,68c0,57 -27,89 -96,114c-116,44 -131,55 -151,118c-17,56 -21,60 -107,118c-67,45 -95,72 -116,108c-15,26 -29,49 -32,52c-3,3 -8,-50 -11,-116zm56,10c7,-9 48,-40 92,-70c72,-49 82,-59 96,-104c21,-61 60,-97 130,-120c30,-10 69,-28 87,-42c28,-21 32,-30 32,-68c0,-32 7,-51 26,-74l26,-31l-99,0c-54,0 -174,-3 -268,-7l-170,-6l7,279c3,153 4,284 1,289c-5,10 19,-17 40,-46z"/>
   <path stroke-width="0" id="svg_5" d="m940,363c-1,-5 -1,-77 0,-160l1,-153l-186,0c-119,0 -185,-4 -185,-10c0,-7 66,-9 193,-8l192,3l3,168c2,109 -1,167 -8,167c-5,0 -10,-3 -10,-7z"/>
  </g>
 </g>
</svg>